# author: headus 3D tools
#  using: ply2obj v1.8
#   from: uvlayout v2.09.02
mtllib SmallBox01.mtl
# 24 vertices
v 2.2925200 0.7641729 -3.4569700
v 2.2925200 -0.7641729 -3.4569700
v 2.2925200 0.7641729 3.4569700
v 2.2925200 -0.7641729 3.4569700
v -2.2925200 0.7641729 -3.4569700
v 2.2925200 0.7641729 -3.4569700
v -2.2925200 0.7641729 3.4569700
v 2.2925200 0.7641729 3.4569700
v -2.2925200 -0.7641729 -3.4569700
v -2.2925200 0.7641729 -3.4569700
v 2.2925200 0.7641729 -3.4569700
v 2.2925200 -0.7641729 -3.4569700
v -2.2925200 -0.7641729 3.4569700
v -2.2925200 0.7641729 3.4569700
v 2.2925200 0.7641729 3.4569700
v 2.2925200 -0.7641729 3.4569700
v -2.2925200 -0.7641729 -3.4569700
v -2.2925200 0.7641729 -3.4569700
v -2.2925200 -0.7641729 3.4569700
v -2.2925200 0.7641729 3.4569700
v -2.2925200 -0.7641729 -3.4569700
v 2.2925200 -0.7641729 -3.4569700
v -2.2925200 -0.7641729 3.4569700
v 2.2925200 -0.7641729 3.4569700
# 6 normals
vn 0.036349 0.000000 0.000000
vn 0.000000 0.036349 0.000000
vn 0.000000 0.000000 -0.036349
vn 0.000000 0.000000 0.036349
vn -0.036349 0.000000 0.000000
vn 0.000000 -0.036349 0.000000
# 24 uv coords
vt 0.620347 0.434243
vt 0.987747 0.434243
vt 0.987747 0.988258
vt 0.620347 0.988258
vt 0.003519 0.129505
vt 0.125986 0.129505
vt 0.125986 0.683521
vt 0.003519 0.683521
vt 0.125987 0.007039
vt 0.493387 0.007039
vt 0.493387 0.129506
vt 0.125987 0.129506
vt 0.493386 0.129505
vt 0.615853 0.129505
vt 0.615853 0.683521
vt 0.493386 0.683521
vt 0.125987 0.805988
vt 0.125987 0.683521
vt 0.493387 0.683521
vt 0.493387 0.805988
vt 0.125987 0.129506
vt 0.493387 0.129506
vt 0.493387 0.683521
vt 0.125987 0.683521
# 6 polygons
usemtl Default
g Default
f 3/13/1 4/14/1 2/15/1 1/16/1
f 7/21/2 8/22/2 6/23/2 5/24/2
f 9/17/3 10/18/3 11/19/3 12/20/3
f 13/9/4 16/10/4 15/11/4 14/12/4
f 19/5/5 20/6/5 18/7/5 17/8/5
f 24/1/6 23/2/6 21/3/6 22/4/6
